<?xml version="1.0" encoding="UTF-8" standalone="no"?>
<!DOCTYPE svg PUBLIC "-//W3C//DTD SVG 1.1//EN"
 "http://www.w3.org/Graphics/SVG/1.1/DTD/svg11.dtd">
<!-- Generated by graphviz version 2.40.1 (20161225.0304)
 -->
<!-- Title: %3 Pages: 1 -->
<svg width="1394pt" height="106pt"
 viewBox="0.00 0.00 1394.14 106.00" xmlns="http://www.w3.org/2000/svg" xmlns:xlink="http://www.w3.org/1999/xlink">
<g id="graph0" class="graph" transform="scale(1 1) rotate(0) translate(4 102)">
<title>%3</title>
<polygon fill="#ffffff" stroke="transparent" points="-4,4 -4,-102 1390.1407,-102 1390.1407,4 -4,4"/>
<!-- 1 -->
<g id="node1" class="node">
<title>1</title>
<ellipse fill="none" stroke="#000000" cx="27" cy="-45" rx="27" ry="18"/>
<text text-anchor="middle" x="27" y="-41.3" font-family="Times,serif" font-size="14.00" fill="#000000">start</text>
</g>
<!-- 3 -->
<g id="node3" class="node">
<title>3</title>
<ellipse fill="none" stroke="#000000" cx="253.2393" cy="-45" rx="120.4791" ry="18"/>
<text text-anchor="middle" x="253.2393" y="-41.3" font-family="Times,serif" font-size="14.00" fill="#000000">mais1 a3+le povre ome devoir</text>
</g>
<!-- 1&#45;&gt;3 -->
<g id="edge1" class="edge">
<title>1&#45;&gt;3</title>
<path fill="none" stroke="#000000" d="M54.2897,-45C72.0314,-45 96.6065,-45 122.4429,-45"/>
<polygon fill="#000000" stroke="#000000" points="122.7855,-48.5001 132.7854,-45 122.7854,-41.5001 122.7855,-48.5001"/>
<text text-anchor="middle" x="93.5" y="-48.8" font-family="Times,serif" font-size="14.00" fill="#000000">A, B, C</text>
</g>
<!-- 2 -->
<g id="node2" class="node">
<title>2</title>
<ellipse fill="none" stroke="#000000" cx="1359.1407" cy="-45" rx="27" ry="18"/>
<text text-anchor="middle" x="1359.1407" y="-41.3" font-family="Times,serif" font-size="14.00" fill="#000000">end</text>
</g>
<!-- 4 -->
<g id="node4" class="node">
<title>4</title>
<ellipse fill="none" stroke="#000000" cx="463.4787" cy="-80" rx="27" ry="18"/>
<text text-anchor="middle" x="463.4787" y="-76.3" font-family="Times,serif" font-size="14.00" fill="#000000">le</text>
</g>
<!-- 3&#45;&gt;4 -->
<g id="edge2" class="edge">
<title>3&#45;&gt;4</title>
<path fill="none" stroke="#000000" d="M333.9221,-58.4318C366.0832,-63.7859 401.475,-69.6778 427.129,-73.9486"/>
<polygon fill="#000000" stroke="#000000" points="426.7052,-77.4262 437.1442,-75.6159 427.8548,-70.5212 426.7052,-77.4262"/>
<text text-anchor="middle" x="404.9787" y="-75.8" font-family="Times,serif" font-size="14.00" fill="#000000">A, C</text>
</g>
<!-- 5 -->
<g id="node5" class="node">
<title>5</title>
<ellipse fill="none" stroke="#000000" cx="580.4787" cy="-45" rx="27" ry="18"/>
<text text-anchor="middle" x="580.4787" y="-41.3" font-family="Times,serif" font-size="14.00" fill="#000000">on</text>
</g>
<!-- 3&#45;&gt;5 -->
<g id="edge3" class="edge">
<title>3&#45;&gt;5</title>
<path fill="none" stroke="#000000" d="M365.4873,-38.5449C405.0014,-37.1054 449.7161,-36.4172 490.4787,-38 507.9498,-38.6784 527.2856,-40.0949 543.5429,-41.4774"/>
<polygon fill="#000000" stroke="#000000" points="543.4631,-44.9838 553.7312,-42.3728 544.0761,-38.0107 543.4631,-44.9838"/>
<text text-anchor="middle" x="463.4787" y="-41.8" font-family="Times,serif" font-size="14.00" fill="#000000">B</text>
</g>
<!-- 4&#45;&gt;5 -->
<g id="edge4" class="edge">
<title>4&#45;&gt;5</title>
<path fill="none" stroke="#000000" d="M488.2914,-72.5774C505.0443,-67.5658 527.3885,-60.8817 545.883,-55.3491"/>
<polygon fill="#000000" stroke="#000000" points="547.1243,-58.6311 555.7017,-52.4119 545.1181,-51.9248 547.1243,-58.6311"/>
<text text-anchor="middle" x="521.9787" y="-68.8" font-family="Times,serif" font-size="14.00" fill="#000000">A, C</text>
</g>
<!-- 6 -->
<g id="node6" class="node">
<title>6</title>
<ellipse fill="none" stroke="#000000" cx="701.026" cy="-80" rx="30.5947" ry="18"/>
<text text-anchor="middle" x="701.026" y="-76.3" font-family="Times,serif" font-size="14.00" fill="#000000">doner</text>
</g>
<!-- 5&#45;&gt;6 -->
<g id="edge5" class="edge">
<title>5&#45;&gt;6</title>
<path fill="none" stroke="#000000" d="M605.4561,-52.252C622.2917,-57.1401 644.8,-63.6752 663.7438,-69.1754"/>
<polygon fill="#000000" stroke="#000000" points="662.9795,-72.598 673.5588,-72.0251 664.9313,-65.8756 662.9795,-72.598"/>
<text text-anchor="middle" x="638.9787" y="-68.8" font-family="Times,serif" font-size="14.00" fill="#000000">A, C</text>
</g>
<!-- 7 -->
<g id="node7" class="node">
<title>7</title>
<ellipse fill="none" stroke="#000000" cx="836.8195" cy="-45" rx="42.4939" ry="18"/>
<text text-anchor="middle" x="836.8195" y="-41.3" font-family="Times,serif" font-size="14.00" fill="#000000">tel chose</text>
</g>
<!-- 5&#45;&gt;7 -->
<g id="edge6" class="edge">
<title>5&#45;&gt;7</title>
<path fill="none" stroke="#000000" d="M607.2261,-42.3728C625.1113,-40.7509 649.1805,-38.827 670.4787,-38 708.7896,-36.5124 752.0573,-38.4457 784.8597,-40.6542"/>
<polygon fill="#000000" stroke="#000000" points="784.9014,-44.1657 795.1226,-41.3769 785.3932,-37.183 784.9014,-44.1657"/>
<text text-anchor="middle" x="701.026" y="-41.8" font-family="Times,serif" font-size="14.00" fill="#000000">B</text>
</g>
<!-- 6&#45;&gt;7 -->
<g id="edge7" class="edge">
<title>6&#45;&gt;7</title>
<path fill="none" stroke="#000000" d="M729.1625,-72.748C746.9208,-68.1709 770.282,-62.1497 790.7031,-56.8862"/>
<polygon fill="#000000" stroke="#000000" points="791.6445,-60.2581 800.4544,-54.3729 789.8973,-53.4796 791.6445,-60.2581"/>
<text text-anchor="middle" x="763.0732" y="-69.8" font-family="Times,serif" font-size="14.00" fill="#000000">A, C</text>
</g>
<!-- 8 -->
<g id="node8" class="node">
<title>8</title>
<ellipse fill="none" stroke="#000000" cx="1142.6505" cy="-45" rx="110.4804" ry="18"/>
<text text-anchor="middle" x="1142.6505" y="-41.3" font-family="Times,serif" font-size="14.00" fill="#000000">qui estre1 plus bon que1 bel</text>
</g>
<!-- 7&#45;&gt;8 -->
<g id="edge8" class="edge">
<title>7&#45;&gt;8</title>
<path fill="none" stroke="#000000" d="M878.6101,-48.1344C884.7948,-48.4938 891.094,-48.802 897.0657,-49 938.6138,-50.3778 984.1321,-50.1261 1024.5717,-49.2862"/>
<polygon fill="#000000" stroke="#000000" points="1024.8181,-52.7817 1034.738,-49.0607 1024.6628,-45.7834 1024.8181,-52.7817"/>
<text text-anchor="middle" x="955.613" y="-52.8" font-family="Times,serif" font-size="14.00" fill="#000000">A, C</text>
</g>
<!-- 9 -->
<g id="node9" class="node">
<title>9</title>
<ellipse fill="none" stroke="#000000" cx="955.613" cy="-18" rx="30.5947" ry="18"/>
<text text-anchor="middle" x="955.613" y="-14.3" font-family="Times,serif" font-size="14.00" fill="#000000">doner</text>
</g>
<!-- 7&#45;&gt;9 -->
<g id="edge9" class="edge">
<title>7&#45;&gt;9</title>
<path fill="none" stroke="#000000" d="M874.4065,-36.457C887.9482,-33.3792 903.2463,-29.9022 916.8838,-26.8026"/>
<polygon fill="#000000" stroke="#000000" points="917.9566,-30.1481 926.9322,-24.5187 916.4051,-23.3222 917.9566,-30.1481"/>
<text text-anchor="middle" x="902.0657" y="-33.8" font-family="Times,serif" font-size="14.00" fill="#000000">B</text>
</g>
<!-- 8&#45;&gt;2 -->
<g id="edge10" class="edge">
<title>8&#45;&gt;2</title>
<path fill="none" stroke="#000000" d="M1253.4324,-45C1278.1853,-45 1302.7612,-45 1321.9788,-45"/>
<polygon fill="#000000" stroke="#000000" points="1322.0712,-48.5001 1332.0711,-45 1322.0711,-41.5001 1322.0712,-48.5001"/>
<text text-anchor="middle" x="1292.6407" y="-48.8" font-family="Times,serif" font-size="14.00" fill="#000000">A, B, C</text>
</g>
<!-- 9&#45;&gt;8 -->
<g id="edge11" class="edge">
<title>9&#45;&gt;8</title>
<path fill="none" stroke="#000000" d="M985.6638,-22.338C1003.2833,-24.8815 1026.5937,-28.2465 1049.8454,-31.603"/>
<polygon fill="#000000" stroke="#000000" points="1049.3925,-35.0738 1059.79,-33.0386 1050.3927,-28.1456 1049.3925,-35.0738"/>
<text text-anchor="middle" x="1009.1603" y="-29.8" font-family="Times,serif" font-size="14.00" fill="#000000">B</text>
</g>
</g>
</svg>
